<svg width="186" height="44" viewBox="0 0 186 44" fill="none" xmlns="http://www.w3.org/2000/svg">
<rect width="186" height="44" fill="white"/>
<path d="M27.8613 32.9578V37.3278H46.3395V32.9578H27.8613Z" fill="url(#paint0_radial_45_3)"/>
<path d="M7.53191 6.28223V11.5022L17.7907 18.0183V18.1755L7.53076 24.6904V29.9104L22.475 20.0978V16.0948L7.53191 6.28223Z" fill="url(#paint1_radial_45_3)"/>
<path d="M83.3182 22.2727C83.3182 24.1534 82.9659 25.7642 82.2614 27.1051C81.5625 28.4403 80.608 29.4631 79.3977 30.1733C78.1932 30.8835 76.8267 31.2386 75.2983 31.2386C73.7699 31.2386 72.4006 30.8835 71.1903 30.1733C69.9858 29.4574 69.0313 28.4318 68.3267 27.0966C67.6278 25.7557 67.2784 24.1477 67.2784 22.2727C67.2784 20.392 67.6278 18.7841 68.3267 17.4489C69.0313 16.108 69.9858 15.0824 71.1903 14.3722C72.4006 13.6619 73.7699 13.3068 75.2983 13.3068C76.8267 13.3068 78.1932 13.6619 79.3977 14.3722C80.608 15.0824 81.5625 16.108 82.2614 17.4489C82.9659 18.7841 83.3182 20.392 83.3182 22.2727ZM80.1392 22.2727C80.1392 20.9489 79.9318 19.8324 79.517 18.9233C79.108 18.0085 78.5398 17.3182 77.8125 16.8523C77.0852 16.3807 76.2472 16.1449 75.2983 16.1449C74.3494 16.1449 73.5114 16.3807 72.7841 16.8523C72.0568 17.3182 71.4858 18.0085 71.071 18.9233C70.6619 19.8324 70.4574 20.9489 70.4574 22.2727C70.4574 23.5966 70.6619 24.7159 71.071 25.6307C71.4858 26.5398 72.0568 27.2301 72.7841 27.7017C73.5114 28.1676 74.3494 28.4006 75.2983 28.4006C76.2472 28.4006 77.0852 28.1676 77.8125 27.7017C78.5398 27.2301 79.108 26.5398 79.517 25.6307C79.9318 24.7159 80.1392 23.5966 80.1392 22.2727ZM86.1712 35.9091V17.9091H89.2053V20.0739H89.3842C89.5433 19.7557 89.7678 19.4176 90.0575 19.0597C90.3473 18.696 90.7393 18.3864 91.2337 18.1307C91.728 17.8693 92.3587 17.7386 93.1257 17.7386C94.1371 17.7386 95.049 17.9972 95.8615 18.5142C96.6797 19.0256 97.3274 19.7841 97.8047 20.7898C98.2876 21.7898 98.5291 23.017 98.5291 24.4716C98.5291 25.9091 98.2933 27.1307 97.8217 28.1364C97.3501 29.142 96.7081 29.9091 95.8956 30.4375C95.0831 30.9659 94.1626 31.2301 93.1342 31.2301C92.3842 31.2301 91.7621 31.1051 91.2678 30.8551C90.7734 30.6051 90.3757 30.304 90.0746 29.9517C89.7791 29.5937 89.549 29.2557 89.3842 28.9375H89.2564V35.9091H86.1712ZM89.1967 24.4545C89.1967 25.3011 89.3161 26.0426 89.5547 26.679C89.799 27.3153 90.1484 27.8125 90.603 28.1705C91.0632 28.5227 91.62 28.6989 92.2734 28.6989C92.9553 28.6989 93.5263 28.517 93.9865 28.1534C94.4467 27.7841 94.7933 27.2812 95.0263 26.6449C95.2649 26.0028 95.3842 25.2727 95.3842 24.4545C95.3842 23.642 95.2678 22.9205 95.0348 22.2898C94.8018 21.6591 94.4553 21.1648 93.995 20.8068C93.5348 20.4489 92.9609 20.2699 92.2734 20.2699C91.6143 20.2699 91.0547 20.4432 90.5945 20.7898C90.1342 21.1364 89.7848 21.6222 89.5462 22.2472C89.3132 22.8722 89.1967 23.608 89.1967 24.4545ZM106.967 31.2557C105.654 31.2557 104.521 30.983 103.566 30.4375C102.617 29.8864 101.887 29.108 101.376 28.1023C100.864 27.0909 100.609 25.9006 100.609 24.5312C100.609 23.1847 100.864 22.0028 101.376 20.9858C101.893 19.9631 102.614 19.1676 103.54 18.5994C104.467 18.0256 105.555 17.7386 106.805 17.7386C107.612 17.7386 108.373 17.8693 109.089 18.1307C109.81 18.3864 110.447 18.7841 110.998 19.3239C111.555 19.8636 111.992 20.5511 112.31 21.3864C112.629 22.2159 112.788 23.2045 112.788 24.3523V25.2983H102.058V23.2188H109.83C109.825 22.6278 109.697 22.1023 109.447 21.642C109.197 21.1761 108.847 20.8097 108.398 20.5426C107.955 20.2756 107.438 20.142 106.847 20.142C106.217 20.142 105.663 20.2955 105.185 20.6023C104.708 20.9034 104.336 21.3011 104.069 21.7955C103.808 22.2841 103.674 22.821 103.668 23.4062V25.2216C103.668 25.983 103.808 26.6364 104.086 27.1818C104.364 27.7216 104.754 28.1364 105.254 28.4261C105.754 28.7102 106.339 28.8523 107.009 28.8523C107.458 28.8523 107.864 28.7898 108.228 28.6648C108.592 28.5341 108.907 28.3438 109.174 28.0938C109.441 27.8438 109.643 27.5341 109.779 27.1648L112.66 27.4886C112.478 28.25 112.131 28.9148 111.62 29.483C111.114 30.0455 110.467 30.483 109.677 30.7955C108.887 31.1023 107.984 31.2557 106.967 31.2557ZM118.483 23.3295V31H115.398V17.9091H118.347V20.1335H118.5C118.801 19.4006 119.281 18.8182 119.94 18.3864C120.605 17.9545 121.426 17.7386 122.403 17.7386C123.307 17.7386 124.094 17.9318 124.764 18.3182C125.44 18.7045 125.963 19.2642 126.332 19.9972C126.707 20.7301 126.892 21.6193 126.886 22.6648V31H123.801V23.142C123.801 22.267 123.574 21.5824 123.119 21.0881C122.67 20.5937 122.048 20.3466 121.253 20.3466C120.713 20.3466 120.233 20.4659 119.812 20.7045C119.398 20.9375 119.071 21.2756 118.832 21.7188C118.599 22.1619 118.483 22.6989 118.483 23.3295ZM139.645 18.3438C139.565 17.5994 139.23 17.0199 138.639 16.6051C138.054 16.1903 137.293 15.983 136.355 15.983C135.696 15.983 135.131 16.0824 134.659 16.2812C134.188 16.4801 133.827 16.75 133.577 17.0909C133.327 17.4318 133.199 17.821 133.193 18.2585C133.193 18.6222 133.276 18.9375 133.44 19.2045C133.611 19.4716 133.841 19.6989 134.131 19.8864C134.42 20.0682 134.741 20.2216 135.094 20.3466C135.446 20.4716 135.801 20.5767 136.159 20.6619L137.795 21.071C138.455 21.2244 139.088 21.4318 139.696 21.6932C140.31 21.9545 140.858 22.2841 141.341 22.6818C141.83 23.0795 142.216 23.5597 142.5 24.1222C142.784 24.6847 142.926 25.3437 142.926 26.0994C142.926 27.1222 142.665 28.0227 142.142 28.8011C141.619 29.5739 140.864 30.179 139.875 30.6165C138.892 31.0483 137.702 31.2642 136.304 31.2642C134.946 31.2642 133.767 31.054 132.767 30.6335C131.773 30.2131 130.994 29.5994 130.432 28.7926C129.875 27.9858 129.574 27.0028 129.528 25.8438H132.639C132.685 26.4517 132.872 26.9574 133.202 27.3608C133.531 27.7642 133.96 28.0653 134.489 28.2642C135.023 28.4631 135.619 28.5625 136.278 28.5625C136.966 28.5625 137.568 28.4602 138.085 28.2557C138.608 28.0455 139.017 27.7557 139.312 27.3864C139.608 27.0114 139.759 26.5739 139.764 26.0739C139.759 25.6193 139.625 25.2443 139.364 24.9489C139.102 24.6477 138.736 24.3977 138.264 24.1989C137.798 23.9943 137.253 23.8125 136.628 23.6534L134.642 23.142C133.205 22.7727 132.068 22.2131 131.233 21.4631C130.403 20.7074 129.989 19.7045 129.989 18.4545C129.989 17.4261 130.267 16.5256 130.824 15.7528C131.386 14.9801 132.151 14.3807 133.116 13.9545C134.082 13.5227 135.176 13.3068 136.398 13.3068C137.636 13.3068 138.722 13.5227 139.653 13.9545C140.591 14.3807 141.327 14.9744 141.861 15.7358C142.395 16.4915 142.67 17.3608 142.688 18.3438H139.645ZM149.376 31.2642C148.546 31.2642 147.799 31.1165 147.134 30.821C146.475 30.5199 145.952 30.0767 145.566 29.4915C145.185 28.9062 144.995 28.1847 144.995 27.3267C144.995 26.5881 145.131 25.9773 145.404 25.4943C145.677 25.0114 146.049 24.625 146.521 24.3352C146.992 24.0455 147.523 23.8267 148.114 23.679C148.711 23.5256 149.327 23.4148 149.964 23.3466C150.731 23.267 151.353 23.196 151.83 23.1335C152.308 23.0653 152.654 22.9631 152.87 22.8267C153.092 22.6847 153.202 22.4659 153.202 22.1705V22.1193C153.202 21.4773 153.012 20.9801 152.631 20.6278C152.251 20.2756 151.702 20.0994 150.987 20.0994C150.231 20.0994 149.631 20.2642 149.188 20.5938C148.751 20.9233 148.455 21.3125 148.302 21.7614L145.421 21.3523C145.648 20.5568 146.023 19.892 146.546 19.358C147.069 18.8182 147.708 18.4148 148.464 18.1477C149.219 17.875 150.055 17.7386 150.969 17.7386C151.6 17.7386 152.228 17.8125 152.853 17.9602C153.478 18.108 154.049 18.3523 154.566 18.6932C155.083 19.0284 155.498 19.4858 155.81 20.0653C156.129 20.6449 156.288 21.3693 156.288 22.2386V31H153.322V29.2017H153.219C153.032 29.5653 152.768 29.9062 152.427 30.2244C152.092 30.5369 151.668 30.7898 151.157 30.983C150.651 31.1705 150.058 31.2642 149.376 31.2642ZM150.177 28.9972C150.796 28.9972 151.333 28.875 151.788 28.6307C152.242 28.3807 152.592 28.0511 152.836 27.642C153.086 27.233 153.211 26.7869 153.211 26.304V24.7614C153.114 24.8409 152.95 24.9148 152.717 24.983C152.489 25.0511 152.234 25.1108 151.95 25.1619C151.665 25.2131 151.384 25.2585 151.106 25.2983C150.827 25.3381 150.586 25.3722 150.381 25.4006C149.921 25.4631 149.509 25.5653 149.146 25.7074C148.782 25.8494 148.495 26.0483 148.285 26.304C148.075 26.554 147.969 26.8778 147.969 27.2756C147.969 27.8438 148.177 28.2727 148.592 28.5625C149.006 28.8523 149.535 28.9972 150.177 28.9972ZM165.927 17.9091V20.2955H158.401V17.9091H165.927ZM160.259 14.7727H163.344V27.0625C163.344 27.4773 163.407 27.7955 163.532 28.017C163.663 28.233 163.833 28.3807 164.043 28.4602C164.254 28.5398 164.487 28.5795 164.742 28.5795C164.935 28.5795 165.112 28.5653 165.271 28.5369C165.435 28.5085 165.56 28.483 165.646 28.4602L166.165 30.8722C166.001 30.929 165.765 30.9915 165.458 31.0597C165.157 31.1278 164.788 31.1676 164.35 31.179C163.577 31.2017 162.881 31.0852 162.262 30.8295C161.643 30.5682 161.151 30.1648 160.788 29.6193C160.43 29.0739 160.254 28.392 160.259 27.5739V14.7727ZM178.666 21.3693L175.854 21.6761C175.774 21.392 175.635 21.125 175.436 20.875C175.243 20.625 174.982 20.4233 174.652 20.2699C174.322 20.1165 173.919 20.0398 173.442 20.0398C172.8 20.0398 172.26 20.179 171.822 20.4574C171.391 20.7358 171.178 21.0966 171.183 21.5398C171.178 21.9205 171.317 22.2301 171.601 22.4688C171.891 22.7074 172.368 22.9034 173.033 23.0568L175.266 23.5341C176.504 23.8011 177.425 24.2244 178.027 24.804C178.635 25.3835 178.942 26.142 178.947 27.0795C178.942 27.9034 178.7 28.6307 178.223 29.2614C177.751 29.8864 177.095 30.375 176.254 30.7273C175.413 31.0795 174.447 31.2557 173.357 31.2557C171.754 31.2557 170.464 30.9205 169.487 30.25C168.51 29.5739 167.928 28.6335 167.74 27.429L170.749 27.1392C170.885 27.7301 171.175 28.1761 171.618 28.4773C172.061 28.7784 172.638 28.929 173.348 28.929C174.081 28.929 174.669 28.7784 175.112 28.4773C175.561 28.1761 175.786 27.804 175.786 27.3608C175.786 26.9858 175.641 26.6761 175.351 26.4318C175.067 26.1875 174.624 26 174.021 25.8693L171.788 25.4006C170.533 25.1392 169.604 24.6989 169.001 24.0795C168.399 23.4545 168.101 22.6648 168.107 21.7102C168.101 20.9034 168.32 20.2045 168.763 19.6136C169.212 19.017 169.834 18.5568 170.629 18.233C171.43 17.9034 172.354 17.7386 173.399 17.7386C174.933 17.7386 176.141 18.0653 177.021 18.7188C177.908 19.3722 178.456 20.2557 178.666 21.3693Z" fill="black"/>
<defs>
<radialGradient id="paint0_radial_45_3" cx="0" cy="0" r="1" gradientUnits="userSpaceOnUse" gradientTransform="translate(-21.8702 70.6904) scale(97.6165 97.4681)">
<stop stop-color="#FFB200"/>
<stop offset="0.493" stop-color="#FF6B01"/>
</radialGradient>
<radialGradient id="paint1_radial_45_3" cx="0" cy="0" r="1" gradientUnits="userSpaceOnUse" gradientTransform="translate(-21.8703 70.6906) scale(97.6165 97.4681)">
<stop stop-color="#FFB200"/>
<stop offset="0.493" stop-color="#FF6B01"/>
</radialGradient>
</defs>
</svg>
