<svg xmlns="http://www.w3.org/2000/svg" width="512" height="512" fill="none"><path fill="#000" d="M209.757 411.798c-7.912-.995-19.141-3.69-27.206-6.527-25.912-9.117-44.641-23.75-54.891-42.886-3.079-5.747-7.664-18.226-6.957-18.934.188-.188 2.969 1.424 6.18 3.581 34.516 23.186 76.721 43.138 118.519 56.026l8.351 2.575-5.166 1.892c-11.074 4.057-26.799 5.788-38.83 4.273Zm42.38-15.115c-42.948-12.761-84.476-32.285-122.775-57.723-9.617-6.388-10.573-7.24-11.065-9.866-.914-4.877.382-21.409 2.497-31.87 1.871-9.255 7.05-27.059 8.226-28.279.516-.536 55.538 12.301 56.391 13.156.249.249-.288 2.894-1.193 5.878-6.254 20.63-6.936 32.558-2.532 44.299 5.736 15.29 29.186 25.49 45.18 19.652 7.449-2.718 14.423-10.484 21.058-23.45 7.464-14.585 8.244-16.584 50.074-128.379 20.677-55.264 37.844-100.754 38.148-101.088.536-.588 55.544 19.63 56.851 20.895.524.508-66.892 181.824-78.444 210.977-4.695 11.847-14.511 31.4-19.857 39.552-2.589 3.948-7.838 10.438-11.664 14.422-7.091 7.383-16.938 15.044-19.228 14.96-.698-.027-5.948-1.437-11.667-3.136Z"/></svg>